<?xml version="1.0" encoding="UTF-8"?>
<svg id="_x31_" xmlns="http://www.w3.org/2000/svg" version="1.1" viewBox="0 0 595 842">
  <!-- Generator: Adobe Illustrator 29.8.4, SVG Export Plug-In . SVG Version: 2.1.1 Build 6)  -->
  <defs>
    <style>
      .st0 {
        fill: #fff;
      }

      .st1 {
        fill-rule: evenodd;
      }
    </style>
  </defs>
  <rect class="st0" x="25.4" y="31.9" width="541.8" height="240.8"/>
  <g>
    <g>
      <path class="st1" d="M51.4,200.7h0ZM81.2,200.7h0ZM73.9,194.6l2.1,4.3-2.3,3.6v4.2c0,0,.2,4,.2,4,.3-.2.5-.4.7-.6l6.7-9.3c.6-.8.7-1.9.2-2.9-4.6-8.8-3.8-12.3-14.7-12.1-.3,0-.6,0-.9,0-10.9-.2-10.1,3.4-14.7,12.1-.5.9-.4,2.1.2,2.9l6.7,9.3c.2.2.4.5.7.6v-4c.1-1.4.1-2.8.2-4.2l-2.3-3.6,2.2-4.3c.1.8.7,1.9.7,3.8l-1,45.3c0,1.4.8,2.7,2,3.3,1.1.5,2.5.5,3.5,0,1.1-.6,1.9-1.7,1.9-3v-19.8c0,0,0-5.5,0-5.5,0-.2.1-.3.3-.4h0c.2,0,.3.2.3.4v25.3c.1,1.5,1,2.7,2.3,3.2,1.2.5,2.7.3,3.7-.4.9-.7,1.5-1.8,1.4-3-.3-14.9-.6-29.8-1-44.8,0-2.1.2-3.2.8-4.3ZM73.9,194.6"/>
      <path class="st1" d="M60.1,178.7c.1,3.4,3,6,6.4,5.9,3.4-.1,6-3,5.9-6.4-.1-3.4-3-6-6.4-5.9-3.4.1-6,3-5.9,6.4Z"/>
    </g>
    <g>
      <path class="st1" d="M233.8,63.7c.1,3.4,3,6,6.4,5.9,3.4-.1,6-3,5.9-6.4-.1-3.4-3-6-6.4-5.9-3.4.1-6,3-5.9,6.4Z"/>
      <path class="st1" d="M240,103.3c.2,0,.3.2.3.3v25.3c.1,1.5,1,2.7,2.3,3.2,1.2.5,2.7.3,3.7-.4.9-.7,1.5-1.8,1.4-3l-.7-32.2c-.1,0-.3,0-.4,0h0c-.8,0-1.6-.1-2.2-.6-.7-.5-1.1-1.3-1.2-2.1-.1-.8,0-1.6.6-2.3l3.1-4,.8-8,.3.5,1.8,3.5.2.3-2.5,3.8c-1.1,1.4-2.1,2.8-3.2,4.2-.9,1.2-.7,2.8.5,3.7.6.4,1.3.6,1.9.5.2,0,.3,0,.5-.1.2,0,.3-.1.5-.2.3-.2.6-.4.8-.7l6.8-9.3c.6-.8.7-1.9.2-2.9h0c-2.2-4.1-4.3-12.1-9-12.4-1.8,0-3.8.2-5.9.2-.3,0-.6,0-.9,0-2.1,0-4.2-.3-5.9-.2-4.7.2-6.8,8.3-9,12.2h0c-.5,1.1-.4,2.2.2,3l6.8,9.3c.2.3.5.5.8.7.2,0,.3.2.5.2.2,0,.3,0,.5.1.7,0,1.4,0,1.9-.5,1.2-.9,1.4-2.6.5-3.7-1.1-1.4-2.1-2.8-3.2-4.2l-2.5-3.8.2-.3,1.8-3.5.3-.5.8,8,3.1,4c.5.7.7,1.5.6,2.3-.1.8-.5,1.6-1.2,2.1-.7.5-1.5.7-2.2.6h0c-.1,0-.3,0-.4,0l-.7,32.2c0,1.2.5,2.3,1.4,3,1,.8,2.5.9,3.7.4,1.3-.5,2.2-1.7,2.2-3.2v-19.8c0,0,0-5.5,0-5.5,0-.2.1-.3.2-.3,0,0,.2,0,.2,0Z"/>
    </g>
    <g>
      <path class="st1" d="M296.5,97.3l.3-16-1.5,15.3c0,.9-.6,1.4-1.3,1.7-.9.4-2,.3-2.8-.3-.6-.4-.9-1-.9-1.9,0-.1,0-.2,0-.3l2.3-21.1c.6-5.7,5.5-4.1,10.5-4,.3,0,.6,0,.9,0,5,0,9.9-1.6,10.5,4l2.3,21.1c0,.1,0,.2,0,.3,0,.6-.2,1.1-.5,1.5-.8.9-2.2,1.2-3.3.7-.7-.3-1.2-.8-1.3-1.7l-1.5-15.3.3,16,9,7.1c1.5,1.3,1.8,3.6.5,5.1-.2.2-.3.4-.5.5h0s-10.2,8.2-10.2,8.2c-1.6,1.3-3.9,1-5.1-.6-1.3-1.6-1-3.9.6-5.1l6.7-5.4-6.5-4.3c-1.1-.7-1.9-1.4-1.9.7v25.3c-.1,1.3-.9,2.5-2,3-1,.6-2.5.6-3.5,0-1.2-.6-2-1.9-2-3.3l.7-31.4Z"/>
      <path class="st1" d="M297.5,63.7c.1,3.4,3,6,6.4,5.9,3.4-.1,6-3,5.9-6.4-.1-3.4-3-6-6.4-5.9-3.4.1-6,3-5.9,6.4Z"/>
    </g>
    <g>
      <path class="st1" d="M111,88.3v4.2c0,0-.2,3.5-.2,3.5l-.7,32.7c0,1.4.8,2.7,2,3.3,1.1.5,2.5.5,3.5,0,1.1-.6,1.9-1.7,1.9-3v-19.8c0,0,0-5.5,0-5.5,0-.2.1-.3.3-.3,0,0,0,0,.1,0,.2,0,.3.2.3.4v25.3c.1,1.5,1,2.7,2.3,3.2,1.2.5,2.7.3,3.7-.4.9-.7,1.5-1.8,1.4-3l-1-47.4,1.5,15.3c0,.8.6,1.4,1.3,1.7,1.1.5,2.5.2,3.3-.7.3-.4.5-.9.5-1.5,0-.1,0-.2,0-.3l-2.3-21.1c-.6-5.7-5.5-4.1-10.5-4-.1,0-.3,0-.4,0s-.3,0-.5,0c-1.7,0-3.5-.2-5-.3-5.6,0-7.4,7.5-10,12.4-.5,1-.4,2.1.2,2.9l1.3,1.8,5.5,7.6c.2.3.5.5.8.7v-3.9c0,0,.2-4.2.2-4.2l-2.5-3.8,2.3-4.4.8,8v.8Z"/>
      <path class="st1" d="M111.8,63.7c.1,3.4,3,6,6.4,5.9,3.4-.1,6-3,5.9-6.4-.1-3.4-3-6-6.4-5.9-3.4.1-6,3-5.9,6.4Z"/>
    </g>
    <g>
      <path class="st1" d="M176.2,70.5c-.2,0-.3,0-.5,0-1.7,0-3.5-.2-5-.3-5.6,0-7.4,7.5-10,12.4-.5,1-.4,2.1.2,2.9l1.3,1.8,5.5,7.6c.2.3.5.5.8.7v-3.9c0,0,.2-4.2.2-4.2l-2.5-3.8,2.3-4.4.8,8v.8s-.1,4.2-.1,4.2v3.5c0,0-.8,32.7-.8,32.7,0,1.4.8,2.7,2,3.3,1.1.5,2.5.5,3.5,0,1.1-.6,1.9-1.7,1.9-3v-19.8c0,0,0-5.5,0-5.5,0-.2.1-.3.3-.4h0s0,0,0,0h0c0,0,.2,0,.2,0,0,0,.1.2.1.3v25.5c.1,1.3.9,2.5,2,3.1,1,.6,2.4.6,3.5,0,1.2-.6,2.1-1.9,2-3.4l-.6-29.4c0-5.2-.5-10.8.1-16,.2-2,.8-3.9,1.9-5,1.8-1.9,5.9-1.9,8.3-2l10.9-.5c1.5,0,2.4-1.7,2.2-3-.1-.8-.6-1.5-1.3-1.8-.2-.1-.5-.2-.8-.3-.3,0-.6-.1-.9-.1-9.2.2-18.4,0-27.6,0Z"/>
      <path class="st1" d="M176.4,69.4c3.4-.1,6-3,5.9-6.4-.1-3.4-3-6-6.4-5.9-3.4.1-6,3-5.9,6.4.1,3.4,3,6,6.4,5.9Z"/>
    </g>
    <g>
      <path class="st1" d="M122.7,178.7c.1,3.4,3,6,6.4,5.9,3.4-.1,6-3,5.9-6.4-.1-3.4-3-6-6.4-5.9-3.4.1-6,3-5.9,6.4Z"/>
      <path class="st1" d="M128.4,185.7c-2.1,0-4.2-.3-5.9-.2-4.7.2-6.8,8.3-9,12.2h0c-.5,1.1-.4,2.2.2,3l6.8,9.3c.2.3.5.5.8.7.2,0,.3.2.5.2.2,0,.3,0,.5.1.7,0,1.4,0,1.9-.5,1.2-.9,1.4-2.6.5-3.7l-3.2-4.2-2.5-3.8.2-.3,1.8-3.5.3-.5.8,8,3.1,4c.5.7.7,1.5.6,2.3-.1.8-.5,1.6-1.2,2.1-.7.5-1.5.7-2.2.6h0c-.1,0-.3,0-.4,0l-10.6,30.6c-.7,1.9.3,4,2.2,4.7.1,0,.3,0,.4.1,1.8.5,3.7-.5,4.4-2.3l10.6-25.9,10.7,26.3c.7,1.8,2.6,2.8,4.4,2.3.1,0,.3,0,.4-.1,1.9-.7,2.9-2.8,2.2-4.7l-10.6-31c-.1,0-.3,0-.4,0h0c-.8,0-1.6-.1-2.2-.6-.7-.5-1.1-1.3-1.2-2.1-.1-.8,0-1.6.6-2.3l3.1-4,.8-8,.3.5,1.8,3.5.2.3-2.5,3.8-3.2,4.2c-.9,1.2-.7,2.8.5,3.7.6.4,1.3.6,1.9.5.2,0,.3,0,.5-.1.2,0,.3-.1.5-.2.3-.2.6-.4.8-.7l6.8-9.3c.6-.8.7-1.9.2-2.9h0c-2.2-4.1-4.3-12.1-9-12.4-1.8,0-3.8.2-5.9.2-.3,0-.6,0-.9,0Z"/>
    </g>
    <g>
      <path class="st1" d="M175.4,200.7h0ZM205.2,200.7h0ZM197.4,212.1l9,7.4c1.6,1.3,1.8,3.6.5,5.1-.2.2-.3.4-.5.5h0s-10.2,8.2-10.2,8.2c-1.6,1.3-3.9,1-5.1-.6-1.3-1.6-1-3.9.6-5.1l6.7-5.4-6.5-4.3c-1.1-.7-1.9-1.4-1.9.7v25.3c-.1,1.3-.9,2.5-2,3-1,.6-2.5.6-3.5,0-1.2-.6-2-1.9-2-3.3l1-45.3c0-1.9-.6-3-.7-3.8l-2.2,4.3,2.3,3.6c0,1.4,0,2.8,0,4.2v4c-.3-.2-.6-.4-.8-.6l-6.7-9.3c-.6-.8-.7-1.9-.2-2.9,4.5-8.8,3.8-12.3,14.7-12.1.3,0,.6,0,.9,0,10.9-.2,10.1,3.3,14.7,12.1.5.9.4,2.1-.2,2.9l-6.7,9.3c-.2.2-.4.5-.7.6v-4c0,0-.2-4.2-.2-4.2l2.3-3.6-2.1-4.3c-.6,1.2-.8,2.3-.8,4.3,0,4.2.2,8.9.3,13.1h0ZM197.9,194.6"/>
      <path class="st1" d="M184.2,178.7c.1,3.4,3,6,6.4,5.9,3.4-.1,6-3,5.9-6.4-.1-3.4-3-6-6.4-5.9-3.4.1-6,3-5.9,6.4Z"/>
    </g>
    <g>
      <path class="st1" d="M58.3,132c-1.2-.6-2-1.9-2-3.3l1-47.4-1.5,15.3c0,.9-.6,1.4-1.3,1.7-.9.4-2,.3-2.8-.3-.6-.4-.9-1-.9-1.9,0-.1,0-.2,0-.3l2.3-21.1c.6-5.7,5.5-4.1,10.5-4,.3,0,.6,0,.9,0,5,0,9.9-1.6,10.5,4l2.3,21.1c0,.1,0,.2,0,.3,0,.6-.2,1.1-.5,1.5-.8.9-2.2,1.2-3.3.7-.7-.3-1.2-.8-1.3-1.7l-1.5-15.3,1,47.4c0,1.2-.5,2.3-1.4,3-1,.8-2.5.9-3.7.4-1.3-.5-2.2-1.7-2.2-3.2v-19.8c0,0,0-5.5,0-5.5,0-.2-.1-.3-.3-.4h0c-.2,0-.3.2-.3.4v25.3c-.1,1.3-.9,2.5-2,3-1,.6-2.5.6-3.5,0Z"/>
      <path class="st1" d="M58,63.7c.1,3.4,3,6,6.4,5.9,3.4-.1,6-3,5.9-6.4-.1-3.4-3-6-6.4-5.9-3.4.1-6,3-5.9,6.4Z"/>
    </g>
    <g>
      <path class="st1" d="M256.6,171.8c0,0-.1,0-.2,0h0c0,0-.1,0-.2,0h0c0,0-.1,0-.2,0h0c0,0-.1,0-.2,0h0c0,0-.1,0-.2,0h0c0,0-.1,0-.2,0h0c0,0-.1,0-.2,0h0c0,0-.1,0-.2,0h0c0,0-.1,0-.2,0h0c0,0-.1,0-.2,0-2.7.7-4.7,3.1-4.7,6s2,5.4,4.7,6c0,0,.1,0,.2,0h0s.1,0,.2,0h0c0,0,.1,0,.2,0h0c0,0,.1,0,.2,0h0c0,0,.1,0,.2,0h0c0,0,.1,0,.2,0h0c0,0,.1,0,.2,0h0c0,0,.1,0,.2,0h0c0,0,.1,0,.2,0h0c0,0,.1,0,.2,0h0c0,0,.1,0,.2,0h0c0,0,.1,0,.2,0h0c0,0,.1,0,.2,0h0c0,0,.1,0,.2,0h0c0,0,.1,0,.2,0h0c0,0,.1,0,.2,0h0c0,0,.1,0,.2,0h0c0,0,.1,0,.2,0h0c0,0,.1,0,.2,0h0s0,0,.1,0c2.7-.7,4.7-3.1,4.7-6s-2-5.4-4.7-6c0,0,0,0-.1,0h0c0,0-.1,0-.2,0h0c0,0-.1,0-.2,0h0c0,0-.1,0-.2,0h0c0,0-.1,0-.2,0h0c0,0-.1,0-.2,0h0c0,0-.1,0-.2,0h0c0,0-.1,0-.2,0h0c0,0-.1,0-.2,0h0c0,0-.1,0-.2,0h0Z"/>
      <path class="st1" d="M284.3,185.3c.3,0,.6,0,.9.1.3,0,.6.2.8.3.7.4,1.2,1,1.3,1.8.2,1.4-.7,3-2.2,3.1l-10.9.5c-2.4.1-6.5,0-8.3,2-2.1,2.2-2.2,6.9-2,10.5l2.1,39.9c.2,2-1.2,3.8-3.2,4-.1,0-.3,0-.4,0-1.9,0-3.5-1.3-3.7-3.2l-1.9-25.4-1.9,25.4c-.2,1.9-1.9,3.3-3.7,3.2-.1,0-.3,0-.4,0-2-.2-3.4-2-3.2-4l2.1-39.9c.2-3.7,0-8.4-2-10.5-1.8-1.9-5.9-1.9-8.3-2l-10.9-.5c-1.5,0-2.4-1.7-2.2-3.1.1-.8.6-1.5,1.3-1.8.2-.1.5-.2.8-.3.3,0,.6-.1.9-.1,9.2.2,18.5,0,27.7,0,9.2,0,18.5.2,27.7,0Z"/>
    </g>
    <g>
      <path class="st1" d="M377,57.1c0,0-.1,0-.2,0h0c0,0-.1,0-.2,0h0c0,0-.1,0-.2,0h0c0,0-.1,0-.2,0h0c0,0-.1,0-.2,0h0c0,0-.1,0-.2,0h0c0,0-.1,0-.2,0h0c0,0-.1,0-.2,0h0s0,0-.2,0h0s0,0-.1,0c-2.7.7-4.7,3.1-4.7,6s2,5.3,4.7,6c0,0,0,0,.1,0h0c0,0,.1,0,.2,0h0s.1,0,.2,0h0c0,0,.1,0,.2,0h0c0,0,.1,0,.2,0h0c0,0,.1,0,.2,0h0c0,0,.1,0,.2,0h0c0,0,.1,0,.2,0h0c0,0,.1,0,.2,0h0c0,0,.1,0,.2,0h0c0,0,.1,0,.2,0h0c0,0,.1,0,.2,0h0c0,0,.1,0,.2,0h0c0,0,.1,0,.2,0h0c0,0,.1,0,.2,0h0c0,0,.1,0,.2,0h0c0,0,.1,0,.2,0h0c0,0,.1,0,.2,0h0s0,0,.1,0h0s0,0,.1,0c2.7-.7,4.7-3.1,4.7-6s-2-5.3-4.7-6c0,0,0,0-.1,0h0s0,0-.1,0h0c0,0-.1,0-.2,0h0c0,0-.1,0-.2,0h0c0,0-.1,0-.2,0h0c0,0-.1,0-.2,0h0c0,0-.1,0-.2,0h0c0,0-.1,0-.2,0h0c0,0-.1,0-.2,0h0c0,0-.1,0-.2,0h0Z"/>
      <path class="st1" d="M367.8,78.2c1.1,1.1,1.7,3,1.9,5,1,8.4-1.2,13.3-3.7,21.6l-6.7,22.2c-.7,1.9.3,4,2.2,4.7.1,0,.3,0,.4.1,1.8.5,3.7-.5,4.4-2.3,3-7.7,5.6-19.4,10.6-25.9,5.2,6.3,7.8,18.6,10.7,26.3.7,1.8,2.6,2.8,4.4,2.3.1,0,.3,0,.4-.1,1.9-.7,2.9-2.8,2.2-4.7-2.1-7.3-4.2-15-6.5-22.4-2.6-8.6-4.9-13.2-3.9-21.9.2-2,.8-3.9,1.9-5,1.8-1.9,5.9-1.9,8.3-2l10.9-.5c1.5,0,2.4-1.7,2.2-3-.1-.8-.6-1.5-1.3-1.8-.2-.1-.5-.2-.8-.3-.3,0-.6-.1-.9-.1-9.2.2-18.4,0-27.6,0-9.2,0-18.4.2-27.6,0-.3,0-.6,0-.9.1-.3,0-.6.2-.8.3-.7.4-1.2,1-1.3,1.8-.2,1.4.7,3,2.2,3l10.9.5c2.4.1,6.5,0,8.3,2Z"/>
    </g>
    <g>
      <path class="st1" d="M330.1,172.4c0,0,.1,0,.2,0h0c0,0,.1,0,.2,0h0c0,0,.1,0,.2,0h0c0,0,.1,0,.2,0h0c0,0,.1,0,.2,0h0c0,0,.1,0,.2,0h0c0,0,.1,0,.2,0h0c0,0,.1,0,.2,0h0s.1,0,.2,0h0s0,0,.1,0c2.7.7,4.7,3.1,4.7,6s-2,5.4-4.7,6c0,0,0,0-.1,0h0s-.1,0-.2,0h0c0,0-.1,0-.2,0h0c0,0-.1,0-.2,0h0c0,0-.1,0-.2,0h0c0,0-.1,0-.2,0h0c0,0-.1,0-.2,0h0c0,0-.1,0-.2,0h0c0,0-.1,0-.2,0h0c0,0-.1,0-.2,0h0c0,0-.1,0-.2,0h0c0,0-.1,0-.2,0h0c0,0-.1,0-.2,0h0c0,0-.1,0-.2,0h0c0,0-.1,0-.2,0h0c0,0-.1,0-.2,0h0c0,0-.1,0-.2,0h0c0,0-.1,0-.2,0h0c0,0-.1,0-.2,0h0c0,0-.1,0-.2,0-2.7-.7-4.7-3.1-4.7-6s2-5.4,4.7-6c0,0,0,0,.2,0h0s.1,0,.2,0h0c0,0,.1,0,.2,0h0c0,0,.1,0,.2,0h0c0,0,.1,0,.2,0h0c0,0,.1,0,.2,0h0c0,0,.1,0,.2,0h0c0,0,.1,0,.2,0h0c0,0,.1,0,.2,0h0c0,0,.1,0,.2,0h0Z"/>
      <path class="st1" d="M322.8,205.2c.1-4.7-.2-9.3-2.8-13.4-2.4-3.9-3.6-7.6-4.7-10.6-1-3.1-1.5-4.5-2.4-7.8-.8-3.3-2-6.9.7-7.7,3.3-1,4.6,5.5,5.4,8.2.3,1,.7,1.9,1,2.9,1.9,5.7,3.7,9.2,10.1,9.2,6.5,0,8.3-3.5,10.1-9.2.3-1,.7-1.9,1-2.9.8-2.8,2-9.2,5.4-8.2,2.7.8,1.5,4.4.7,7.7-.8,3.3-1.4,4.8-2.4,7.8-1,3.1-2.3,6.8-4.7,10.6-2.6,4.2-2.9,8.8-2.8,13.4.1,5.2,2.4,10,3.9,14.9,2.3,7.4,4.4,15,6.5,22.4.7,1.9-.3,4-2.2,4.7-.1,0-.3,0-.4.1-1.8.5-3.7-.5-4.4-2.3-2.9-7.7-5.5-20.1-10.7-26.3-5.1,6.5-7.7,18.1-10.6,25.9-.7,1.8-2.6,2.8-4.4,2.3-.1,0-.3,0-.4-.1-1.9-.7-2.9-2.8-2.2-4.7l6.7-22.2c1.5-5,3.4-9.4,3.6-14.6Z"/>
    </g>
    <g>
      <path class="st1" d="M446,82.7l.5,2.5c.2.8,0,1.7-.5,2.4-.4.7-1.1,1.2-2,1.3-.9.2-1.7,0-2.4-.5,0,0,0,0-.1,0l-.4-.4-12.9,39c-.7,1.9.3,4,2.2,4.7.1,0,.3,0,.4.1,1.8.5,3.7-.5,4.4-2.3l10.2-25.9,11.1,26.4c.7,1.8,2.6,2.8,4.4,2.3.1,0,.3,0,.4-.1,1.9-.7,2.9-2.8,2.2-4.7l-11.1-29.9c-.2,0-.5-.2-.8-.4h0s-.4-.4-.4-.4c0,0,0,0,0-.1-.5-.6-.8-1.4-.8-2.3,0-.9.5-1.6,1.1-2.2.6-.5,1.4-.8,2.3-.8l2.6.2,2.5-3,2.5-.7v4.6s-7.6-.5-7.6-.5c-1.5,0-2.7,1-2.8,2.5,0,1.5,1,2.7,2.5,2.8l10.1.6h0c1.4,0,2.6-.9,2.8-2.3l.8-12.6c.2-2.6-4.7-5.4-6.3-6.8-1.6-1.4-5.1-5.9-7.6-5.3l-12.3,2.5c-1.4.4-2.2,1.7-1.9,3.1h0s2,9.9,2,9.9c.3,1.4,1.7,2.4,3.1,2.1,1.4-.3,2.4-1.7,2.1-3.1l-1.5-7.4,4.5-.7-.4,2.6-2.6,2.9Z"/>
      <path class="st1" d="M461.7,75.5h.1c0,0,.1.2.1.2h.1c0,0,.1.2.1.2h.1c0,0,.1.2.1.2h.1c0,0,.1.1.1.1,2.5,1.2,5.6.7,7.5-1.5,1.9-2.2,2-5.3.4-7.6h0c0-.1,0-.2,0-.2h0c0-.1,0-.2,0-.2h-.1c0-.1-.1-.2-.1-.2h-.1c0-.1-.1-.2-.1-.2h-.1c0-.1-.1-.2-.1-.2h-.1c0-.1-.1-.2-.1-.2h-.1c0,0-.1-.2-.1-.2h-.1c0,0-.1-.2-.1-.2h-.1c0,0-.1-.2-.1-.2h-.1c0,0-.1-.1-.1-.1-2.5-1.2-5.6-.7-7.5,1.5-1.9,2.2-2,5.3-.4,7.6h0c0,.1,0,.2,0,.2h0c0,.1,0,.2,0,.2h.1c0,.1.1.2.1.2h.1c0,.1.1.2.1.2h.1c0,.1.1.2.1.2h.1c0,.1.1.2.1.2Z"/>
    </g>
    <g>
      <path class="st1" d="M523.7,82.7l-.5,2.5c-.2.9,0,1.7.5,2.4.4.7,1.1,1.2,2,1.3.8.2,1.7,0,2.4-.5,0,0,0,0,.1,0l.4-.4,12.9,39c.7,1.9-.3,4-2.2,4.7-.1,0-.3,0-.4.1-1.8.5-3.7-.5-4.4-2.3l-10.1-25.9-11.1,26.4c-.7,1.8-2.6,2.8-4.4,2.3-.1,0-.3,0-.4-.1-1.9-.7-2.9-2.8-2.2-4.7l11.1-29.9c.2,0,.5-.2.8-.4h0s.4-.4.4-.4c0,0,0,0,0-.1.5-.6.8-1.4.8-2.3,0-.9-.5-1.6-1.1-2.2-.6-.5-1.4-.8-2.3-.8l-2.6.2-2.5-3-2.5-.7v4.6s7.6-.5,7.6-.5c1.5,0,2.7,1,2.8,2.5,0,1.5-1,2.7-2.5,2.8l-10.1.6h0c-1.4,0-2.6-.9-2.8-2.3l-.8-12.6c-.2-2.6,4.7-5.4,6.3-6.8,1.6-1.4,5.1-5.9,7.6-5.3l12.3,2.5c1.4.4,2.2,1.7,1.9,3.1h0s-2,9.9-2,9.9c-.3,1.4-1.7,2.4-3.1,2.1-1.4-.3-2.4-1.7-2.1-3.1l1.5-7.4-4.5-.7.4,2.6,2.6,2.9Z"/>
      <path class="st1" d="M507.9,75.5h-.1c0,0-.1.2-.1.2h-.1c0,0-.1.2-.1.2h-.1c0,0-.1.2-.1.2h-.1c0,0-.1.1-.1.1-2.5,1.2-5.6.7-7.5-1.5-1.9-2.2-2-5.3-.4-7.6h0c0-.1,0-.2,0-.2h0c0-.1,0-.2,0-.2h.1c0-.1.1-.2.1-.2h.1c0-.1.1-.2.1-.2h.1c0-.1.1-.2.1-.2h.1c0-.1.1-.2.1-.2h.1c0,0,.1-.2.1-.2h.1c0,0,.1-.2.1-.2h.1c0,0,.1-.2.1-.2h.1c0,0,.1-.1.1-.1,2.5-1.2,5.6-.7,7.5,1.5,1.9,2.2,2,5.3.4,7.6h0c0,.1,0,.2,0,.2h0c0,.1,0,.2,0,.2h-.1c0,.1-.1.2-.1.2h-.1c0,.1-.1.2-.1.2h-.1c0,.1-.1.2-.1.2h-.1c0,.1-.1.2-.1.2Z"/>
    </g>
    <g>
      <path class="st1" d="M404.7,187.3h0ZM411.4,183.1c1-3.3-.8-6.8-4.1-7.8-3.3-1-6.8.8-7.8,4.1-1,3.3.8,6.8,4.1,7.8,0,0,0,0,.1,0,.4,0,.7,0,1,0h0c.3,0,.6.1.8.2,2.6,0,5-1.7,5.8-4.4Z"/>
      <path class="st1" d="M399,190.3c-.7.2-1.5.5-2.2.8-1.9.7-5.1,2.1-6.8,3-1.2.7-1.3,1.9-1.3,2.5,0,1.4.2,4.3.4,6.2.2,1.6.4,3.4.7,5.2.3,1.4,1.6,2.4,3.1,2.1,1.4-.3,2.4-1.6,2.1-3.1-.3-1.7-.5-3.3-.7-4.8-.1-1.2-.3-3.4-.3-4.3.7-.4,2.3-1,3.5-1.5.2,0,.4-.1.5-.2.2,0,.4-.1.5-.2,0,0,.1,0,.2,0,1.7-.7,3.4-1.2,5.2-1.6,0,0,.2,0,.3,0,1.2-.5,2-1.8,1.7-3.1-.2-.8-.7-1.4-1.4-1.8-.5-.3-1.1-.3-1.8-.2-.7.2-1.4.4-2.1.6-.3,0-.6.2-.8.3-.2,0-.5.2-.7.2Z"/>
      <path class="st1" d="M401.4,195.6c-.9.3-1.7.6-2.5.9l-.4.2-.5.2s0,0,0,0c-.2,2.1-.2,4.1-.3,5.6-.9,10.8-1.2,13.3-7.6,22.5l-14.3,11c-1.6,1.2-1.9,3.5-.7,5.1,1.2,1.6,3.5,1.9,5.1.7l13-10c2-1.6,2.9-2.7,4.4-4.8,1.9-2.7,3.7-5.3,5.6-8l8.9,9.9-.4,14.9c0,2,1.5,3.7,3.5,3.7,2,0,3.7-1.5,3.7-3.5l.4-16.4c0-1-.4-1.9-1-2.6-3.7-4.8-7.4-9.7-11.1-14.2.1-1.5.5-5.1.9-8.5.2-1.8.4-3.6.5-5.1.2-2.6.3-5.9-1.3-7.8-.6-.7-1.5-1.3-2.7-1.5-1.4-.2-3.2.3-4.4,1.6.4-.1.8-.2,1.2-.3.4,0,.7-.2,1.1-.3.8-.2,1.7,0,2.4.4,0,0,0,0,0,0,.7.4,1.2,1.1,1.4,1.9.2.8,0,1.7-.4,2.4-.4.6-.9,1.1-1.6,1.3-.1,0-.2,0-.4.1-.9.2-1.8.5-2.6.7Z"/>
      <path class="st1" d="M409.1,197.1c-.1,1.6-.3,3.7-.5,5.8.1.2.3.4.4.6.6.8,1.5,1.2,2.5,1.2,1.6,0,3.8-.3,5.7-.7,1.7-.3,3.5-.8,5.2-1.4,1.4-.5,2.1-2,1.6-3.4-.5-1.4-2-2.1-3.4-1.6-1.4.5-2.9.9-4.4,1.2-1.1.2-2.6.4-3.6.5-.6-1-1.4-2.4-2-3.5-.5-1.1-1-2.2-1.5-3.4.2,1.6.1,3.3,0,4.8Z"/>
    </g>
    <g>
      <path class="st1" d="M469.3,182c-.5,3.3,1.7,6.5,5.1,7,3.3.5,6.5-1.7,7-5.1.5-3.3-1.7-6.5-5.1-7-3.3-.5-6.5,1.7-7,5.1Z"/>
      <path class="st1" d="M473.1,192.6c-.6-1.1-2-1.5-3.2-1.1,0,0-.2,0-.3.1h0c-1.1.7-1.6,2-1.1,3.2.3.6.6,1.2.9,1.8,1.5,3.1,2.5,5.2,4.1,7.8,0,.1.2.3.3.4,0,0,0,0,0,.1.1.2.2.4.4.5,1.2,1.6,2.2,1.8,4.5,2.1,3.5.5,6.4.4,9.6.4,1.4,0,2.8-.5,3-2.1.2-1.4-.8-3-2.3-3.1-3.1-.3-5.8-.5-8.6-.5-2.1,0-2.2.3-3.3-1.6-.4-.8-.9-1.5-1.2-2.2-.1-.2-.2-.5-.4-.7-.1-.2-.2-.5-.4-.7-.6-1.3-1.2-2.7-1.8-4.1,0,0,0-.2-.1-.3,0,0,0,0,0-.1Z"/>
      <path class="st1" d="M464.8,194.6h0ZM464.7,195v-.3c.4-.9.7-1.7,1.1-2.5-2.2.4-4,.7-6.2,1.3-2.5.7-3,1.5-4,3.9-1.4,3.2-2.2,6-3.2,9.1-.4,1.3-.3,2.8,1.1,3.5,1.3.6,3.1,0,3.6-1.3,1.2-2.9,2.1-5.4,3-8,.6-2,.4-2.2,2.4-2.7.6-.1,1.1-.3,1.6-.4.2-.9.4-1.7.5-2.5,0,0,0,0,0,0Z"/>
      <path class="st1" d="M461.5,216.7c-1.8,3-3.1,7.1-5,9.8-4,.3-7.3.8-12,1.2-2,.2-3.6,1.7-3.6,3.7,0,1.7,1.5,3.3,3.5,3.2,4.3-.2,7.6-.4,11.1-.8,3.2-.4,4.5-.5,5.9-2.5,1.5-2.3,3.4-6.4,5.2-9-.6-1-1.5-2.3-2.3-3.5-1.2-.3-2.2-1-2.8-1.9Z"/>
      <path class="st1" d="M475.6,197s0,0,0,0c0-.3.1-.7.2-1,.4-2.6-.3-5.6-2.7-6.5-2.2-.8-4.7,0-6.2,1.9-.2.2-.3.4-.4.7-.6,1-.9,2.1-1.2,3.1-.1.7-.3,1.5-.5,2.3-1,4.2-2.4,9.3-3.1,14.1-.4,2.4-.6,3.5.2,4.8.7,1,1.6,1.7,2.9,2,.8,1.2,2,3.1,2.6,4.1,1.9,3.1,2.8,5.1,3.8,7.7-.5,2.4-1.3,5-2.1,7.5-.3.8-.5,1.6-.8,2.3l-1,2.9c-.6,1.9.5,3.9,2.3,4.5,1.9.6,3.9-.5,4.5-2.3,1.5-4.8,4.3-13,4.2-14.9h0c-.4-4.2-5.8-13.8-7-16.7.7-2.7,1.4-5.2,2.2-7.8-.3-.4-.5-.8-.8-1.2-1.2-2-2.2-4-3.2-6.1-.4-.9-.9-1.9-1.6-3.2,0,0,0,0,0,0-.3-.7-.3-1.5,0-2.1.3-.8.9-1.4,1.6-1.8h0s0,0,0,0c.7-.3,1.6-.4,2.4-.1.6.2,1.1.6,1.4,1.1.2.3.4.7.5,1,.5,1.2,1.1,2.4,1.6,3.5,0,0,0,.2.1.3Z"/>
    </g>
    <g>
      <path class="st1" d="M540.2,181.6c1.5-3.1.2-6.8-2.8-8.4-3.1-1.5-6.8-.2-8.4,2.8-1.5,3.1-.2,6.8,2.8,8.4,0,0,0,0,.1,0,.6.3,1.2.4,1.8.5,0,0,0,0,0,0,2.6.3,5.2-1,6.4-3.4Z"/>
      <path class="st1" d="M531.1,186.9c-1.2.1-2.5.4-3.7.8-.2,0-.5.2-.7.3-.2,0-.5.2-.7.3-2.4,1-4.7,2.4-6.6,3.7-3,2.3-6.4,5.9-8.4,8.5-.9,1.2-.7,2.8.5,3.7,1,.8,2.4.7,3.3,0,.1-.1.3-.3.4-.4,1.9-2.4,5.4-5.7,8.2-8.1.3-.2.6-.5.9-.7.2-.1.4-.2.6-.4.2-.1.4-.2.6-.3,1.8-.9,4.1-1.5,6.7-2.2,0,0,0,0,0,0,.6-.2,1.1-.5,1.5-1,.3-.4.5-1,.5-1.6,0,0,0-.2,0-.3,0-.1,0-.2,0-.3h0c-.3-1.3-1.5-2.2-2.8-2Z"/>
      <path class="st1" d="M534.4,188.7h0ZM530.2,193c-1.1.3-2.1.6-3.1,1-.7.3-1.4.6-2,.9-.2.1-.4.2-.6.3-.2,1.1-.4,2.1-.6,3,0,.2,0,.3-.1.5-1.8,8-1.7,12.2-.2,14.6.7,1.2,1.8,1.9,3.2,2.4l2.4,4,5.1,8.7-2.6,14.7c-.4,2,1,3.9,3,4.2,2,.4,3.9-1,4.2-3l2.8-16.1c.2-1,0-2-.6-2.7-2.9-5.3-6-12.2-8.9-17.3.3-1.5,1.3-4.9,2.1-8.3.5-1.8.9-3.5,1.2-5,.6-2.6,1.2-5.8,0-7.9-.5-.8-1.3-1.5-2.5-1.9-1.3-.4-3.1-.2-4.6.8-.5.3-.9.7-1.2,1.3.3,0,.6-.2.9-.3,1-.3,2-.5,3.1-.6h0c.8,0,1.5.1,2.1.5.6.4,1.1,1,1.3,1.8h0s0,0,0,0h0s0,0,0,0c0,0,0,.1,0,.2,0,0,0,.1,0,.2,0,.8-.1,1.6-.6,2.2-.4.6-1.1,1.1-1.8,1.2h0c-.7.2-1.3.3-1.9.5Z"/>
      <path class="st1" d="M523.5,196h0ZM523.3,198.5h0ZM523.3,198.5c.2-.7.4-1.6.5-2.5,0-.1,0-.3,0-.4-.2.1-.3.2-.4.4-1.5,1.3-3.3,2.9-4.9,4.5-1.3,1.3-2.4,2.5-3.2,3.6-.2.2-.3.4-.5.5.2.2.4.4.7.6,1.3.7,2.9.3,3.6-.9,1.4-2.4,1.7-2.8,4-5.3,0-.1,0-.2,0-.4h0Z"/>
      <path class="st1" d="M526.4,216.1c-1.3-.5-2.3-1.2-3-2.2-1.1,3.5-2.4,9.3-3.6,12-3.9,1.1-7.9,2.2-12.5,3.5-1.9.5-3.2,2.3-2.8,4.3.3,1.7,2.1,2.9,4,2.5,4.2-1,8.3-1.9,11.7-3,3-1,4.4-1.3,5.3-3.6.9-2.1,2.2-6.2,3.4-9.2l-2.5-4.2Z"/>
    </g>
  </g>
</svg>