<?xml version="1.0" encoding="UTF-8" standalone="no"?>
<!-- Created with Inkscape (http://www.inkscape.org/) -->

<svg
   width="100mm"
   height="100mm"
   viewBox="0 0 100 100"
   version="1.1"
   id="svg1"
   inkscape:version="1.4 (86a8ad7, 2024-10-11)"
   sodipodi:docname="No Entry Without Permission.svg"
   xml:space="preserve"
   inkscape:export-filename="no_entry_without_permission.png"
   inkscape:export-xdpi="300"
   inkscape:export-ydpi="300"
   xmlns:inkscape="http://www.inkscape.org/namespaces/inkscape"
   xmlns:sodipodi="http://sodipodi.sourceforge.net/DTD/sodipodi-0.dtd"
   xmlns="http://www.w3.org/2000/svg"
   xmlns:svg="http://www.w3.org/2000/svg"><sodipodi:namedview
     id="namedview1"
     pagecolor="#ffffff"
     bordercolor="#000000"
     borderopacity="0.25"
     inkscape:showpageshadow="2"
     inkscape:pageopacity="0.0"
     inkscape:pagecheckerboard="0"
     inkscape:deskcolor="#d1d1d1"
     inkscape:document-units="mm"
     inkscape:zoom="0.99508277"
     inkscape:cx="211.03772"
     inkscape:cy="287.91575"
     inkscape:window-width="1920"
     inkscape:window-height="1009"
     inkscape:window-x="1912"
     inkscape:window-y="-8"
     inkscape:window-maximized="1"
     inkscape:current-layer="g3" /><defs
     id="defs1"><symbol
       id="sjjb-shopping.svg:car"
       viewBox="0 0 502.50159 420.24799"><title
         id="title12">Car</title><path
         d="M 142.91852,0 C 111.18901,0 94.357213,17.322245 86.586633,37.598565 L 45.338153,144.10584 C 28.986505,146.20256 0,165.39636 0,201.75698 v 135.44277 h 40.149113 v 43.31533 c 0,53.29057 75.416987,52.66296 75.416997,0 v -43.31533 h 135.66267 0.0441 135.66259 v 43.31533 c 0,52.66296 75.41664,53.29057 75.41707,0 v -43.31533 h 40.14905 V 201.75698 c 0,-36.36059 -28.98631,-55.55443 -45.33824,-57.65114 L 415.87093,37.598565 C 408.10038,17.32225 391.26873,5e-6 359.53898,5e-6 H 301.22835 201.9328 142.91852 Z m -0.48373,38.785895 h 108.70605 0.0879 0.0441 108.74994 c 13.59772,0.12662 19.42144,8.63032 23.30669,20.40434 l 31.09022,83.816245 h -163.14685 -0.0441 -0.0879 -163.10303 l 31.09026,-83.816245 c 3.8853,-11.77402 9.70755,-20.27772 23.30672,-20.40434 z M 79.066933,183.77123 c 19.24062,0 34.828137,16.05329 34.828137,35.88353 -1e-5,19.83166 -15.587517,35.92753 -34.828137,35.92753 -19.23921,0 -34.828151,-16.0959 -34.828151,-35.92753 0,-19.83019 15.588941,-35.88353 34.828151,-35.88353 z m 344.367667,0 c 19.24063,0 34.82828,16.05334 34.82815,35.88353 0,19.83163 -15.58752,35.92753 -34.82815,35.92753 -19.23919,0 -34.8722,-16.09587 -34.8722,-35.92753 0,-19.83024 15.63301,-35.88353 34.8722,-35.88353 z"
         id="path13" /></symbol></defs><g
     inkscape:label="Layer 1"
     inkscape:groupmode="layer"
     id="layer1"><g
       id="g3"
       transform="translate(0,2.1635944)"><text
         xml:space="preserve"
         style="font-size:14.3578px;line-height:0.9;font-family:Georgia;-inkscape-font-specification:'Georgia, Normal';text-align:center;letter-spacing:0.0896083px;word-spacing:0.0609338px;writing-mode:lr-tb;direction:ltr;text-anchor:middle;fill:#000000;stroke-width:1.44142;stroke-linecap:square;paint-order:fill markers stroke"
         x="50.010517"
         y="67.351341"
         id="text2"><tspan
           sodipodi:role="line"
           id="tspan2"
           style="font-style:normal;font-variant:normal;font-weight:900;font-stretch:normal;font-size:14.3578px;font-family:Arial;-inkscape-font-specification:'Arial, Heavy';font-variant-ligatures:normal;font-variant-caps:normal;font-variant-numeric:normal;font-variant-east-asian:normal;fill:#000000;stroke-width:1.44142;line-height:0.9"
           x="50.010517"
           y="67.351341">NO ENTRY</tspan><tspan
           sodipodi:role="line"
           style="font-style:normal;font-variant:normal;font-weight:900;font-stretch:normal;font-size:14.3578px;font-family:Arial;-inkscape-font-specification:'Arial, Heavy';font-variant-ligatures:normal;font-variant-caps:normal;font-variant-numeric:normal;font-variant-east-asian:normal;fill:#000000;stroke-width:1.44142;line-height:0.9"
           x="50.010517"
           y="80.354355"
           id="tspan3">WITHOUT</tspan><tspan
           sodipodi:role="line"
           style="font-style:normal;font-variant:normal;font-weight:900;font-stretch:normal;font-size:14.3578px;font-family:Arial;-inkscape-font-specification:'Arial, Heavy';font-variant-ligatures:normal;font-variant-caps:normal;font-variant-numeric:normal;font-variant-east-asian:normal;fill:#000000;stroke-width:1.44142;line-height:0.9"
           x="50.055325"
           y="93.357376"
           id="tspan4">PERMISSION</tspan></text><path
         style="fill:#000000;stroke-width:0.647004"
         d="m 33.174103,18.181169 c -1.457195,-0.769818 -2.139759,-1.899849 -2.133534,-3.532228 0.0045,-1.258138 0.430432,-2.200124 1.349644,-2.986939 2.992148,-2.5611662 7.411774,0.328613 6.349711,4.151773 -0.23056,0.829977 -1.285889,2.021506 -2.130002,2.404914 -0.976647,0.443612 -2.557769,0.426344 -3.435819,-0.03753 z"
         id="path29" /><path
         style="fill:#000000;stroke-width:0.647004"
         d="m 31.331002,49.061161 c -0.261881,-0.167846 -0.627788,-0.618368 -0.813135,-1.001168 -0.3159,-0.652432 -0.336992,-1.078342 -0.336992,-6.804665 V 35.146665 H 29.68045 c -0.673014,0 -1.502072,-0.727712 -1.719039,-1.508885 -0.225163,-0.810702 -0.224186,-8.300998 0.0013,-9.875023 0.304539,-2.1259 1.504809,-3.479969 3.443499,-3.884729 l 0.968545,-0.202208 1.204955,0.973554 c 0.66272,0.535454 1.272346,0.973553 1.354723,0.973553 0.08238,0 0.681457,-0.423684 1.331295,-0.941527 0.649838,-0.517836 1.304386,-0.94152 1.454562,-0.94152 0.667029,0 2.103967,0.573996 2.660759,1.062866 0.334889,0.294037 0.883374,1.080329 1.218846,1.747312 0.335478,0.66699 0.865911,1.613408 1.178744,2.103165 0.580557,0.908898 4.102291,4.673097 4.372085,4.673097 0.08185,0 0.148811,-0.676165 0.148811,-1.50259 0,-1.726368 0.237923,-2.263511 1.002591,-2.263511 0.869774,0 0.880463,0.06263 0.880463,5.157606 0,5.146775 -0.02465,5.284768 -0.944044,5.284768 -0.657065,0 -0.93901,-0.601254 -0.93901,-2.002452 v -1.241529 l -0.516749,0.103346 c -0.712539,0.142509 -1.87637,-0.326912 -3.395659,-1.369605 -1.240501,-0.851366 -3.448609,-2.906057 -3.448609,-3.209004 0,-0.08544 -0.07703,-0.155333 -0.171185,-0.155333 -0.112125,0 -0.17141,3.38136 -0.171831,9.800423 -6.15e-4,9.418264 -0.01365,9.821801 -0.334799,10.348475 -0.963855,1.580773 -3.419397,1.389047 -4.128274,-0.322324 l -0.211583,-0.510804 -0.208323,0.484917 c -0.114578,0.266701 -0.410136,0.671111 -0.656799,0.898682 -0.599476,0.553092 -2.034401,0.676204 -2.724709,0.233769 z"
         id="path28" /><path
         style="fill:#000000;stroke-width:0.647004"
         d="M 70.025295,26.663607 69.981752,8.0136037 61.636409,7.9691545 53.291065,7.9247053 V 26.669604 45.41451 l 8.259751,0.04445 c 4.542862,0.02446 8.317866,0.0019 8.3889,-0.05047 0.07103,-0.05221 0.109551,-8.487419 0.08559,-18.744919 z"
         id="path27" /><path
         style="fill:none;fill-opacity:1;stroke-width:1.247;stroke:#000000;stroke-opacity:1;stroke-dasharray:none"
         d="m 47.96166,50.480616 c -2.105998,-1.358191 -4.002412,-2.62342 -4.214255,-2.811621 l -0.385168,-0.342187 v -6.494439 -6.494433 l 1.110415,0.436333 1.110414,0.436333 0.0451,5.566914 0.0451,5.566913 2.567798,1.668947 c 1.412287,0.917924 2.625575,1.67237 2.696189,1.676543 0.07061,0.0039 0.128391,-10.314953 0.128391,-22.931397 0,-19.8585418 -0.03313,-22.9389929 -0.246676,-22.9389929 -0.135677,0 -0.286733,0.064817 -0.335692,0.1440295 -0.04898,0.079219 -1.170502,0.8295628 -2.492312,1.6674396 l -2.40329,1.5234035 -0.0069,8.6465493 -0.007,8.64655 -0.479495,-0.560215 c -0.263725,-0.308123 -0.76166,-1.116975 -1.106519,-1.797461 l -0.627032,-1.23724 6.47e-4,-7.395102 6.47e-4,-7.3951013 0.556353,-0.4161142 C 45.575943,4.40653 51.78011,0.56735654 52.122323,0.56960811 c 0.955451,0.00647 1.168496,0.56556569 1.168496,3.06747879 v 2.0654958 h 9.053923 c 8.659367,0 9.071528,0.014234 9.458055,0.3272482 l 0.404131,0.3272482 V 26.757196 c 0,19.996315 -0.0066,20.40493 -0.332294,20.643099 -0.277151,0.202654 -1.846815,0.242982 -9.458055,0.242982 h -9.12576 v 2.233206 c 0,2.142806 -0.01702,2.250209 -0.420184,2.65339 -0.231103,0.231103 -0.568671,0.420183 -0.750149,0.420183 -0.181485,0 -2.053061,-1.111249 -4.159059,-2.46944 z"
         id="path26" /></g></g></svg>
