<?xml version="1.0" encoding="UTF-8" standalone="no"?>
<!-- Created with Inkscape (http://www.inkscape.org/) -->

<svg
   width="100mm"
   height="100mm"
   viewBox="0 0 100 100"
   version="1.1"
   id="svg1"
   inkscape:version="1.4 (86a8ad7, 2024-10-11)"
   sodipodi:docname="private no turning.svg"
   xmlns:inkscape="http://www.inkscape.org/namespaces/inkscape"
   xmlns:sodipodi="http://sodipodi.sourceforge.net/DTD/sodipodi-0.dtd"
   xmlns:xlink="http://www.w3.org/1999/xlink"
   xmlns="http://www.w3.org/2000/svg"
   xmlns:svg="http://www.w3.org/2000/svg">
  <sodipodi:namedview
     id="namedview1"
     pagecolor="#ffffff"
     bordercolor="#000000"
     borderopacity="0.25"
     inkscape:showpageshadow="2"
     inkscape:pageopacity="0.0"
     inkscape:pagecheckerboard="0"
     inkscape:deskcolor="#d1d1d1"
     inkscape:document-units="mm"
     inkscape:zoom="0.99508277"
     inkscape:cx="140.18934"
     inkscape:cy="132.14981"
     inkscape:window-width="1920"
     inkscape:window-height="1009"
     inkscape:window-x="1912"
     inkscape:window-y="-8"
     inkscape:window-maximized="1"
     inkscape:current-layer="layer1" />
  <defs
     id="defs1">
    <symbol
       id="sjjb-shopping.svg:car"
       viewBox="0 0 502.50159 420.24799">
      <title
         id="title12">Car</title>
      <path
         d="M 142.91852,0 C 111.18901,0 94.357213,17.322245 86.586633,37.598565 L 45.338153,144.10584 C 28.986505,146.20256 0,165.39636 0,201.75698 v 135.44277 h 40.149113 v 43.31533 c 0,53.29057 75.416987,52.66296 75.416997,0 v -43.31533 h 135.66267 0.0441 135.66259 v 43.31533 c 0,52.66296 75.41664,53.29057 75.41707,0 v -43.31533 h 40.14905 V 201.75698 c 0,-36.36059 -28.98631,-55.55443 -45.33824,-57.65114 L 415.87093,37.598565 C 408.10038,17.32225 391.26873,5e-6 359.53898,5e-6 H 301.22835 201.9328 142.91852 Z m -0.48373,38.785895 h 108.70605 0.0879 0.0441 108.74994 c 13.59772,0.12662 19.42144,8.63032 23.30669,20.40434 l 31.09022,83.816245 h -163.14685 -0.0441 -0.0879 -163.10303 l 31.09026,-83.816245 c 3.8853,-11.77402 9.70755,-20.27772 23.30672,-20.40434 z M 79.066933,183.77123 c 19.24062,0 34.828137,16.05329 34.828137,35.88353 -1e-5,19.83166 -15.587517,35.92753 -34.828137,35.92753 -19.23921,0 -34.828151,-16.0959 -34.828151,-35.92753 0,-19.83019 15.588941,-35.88353 34.828151,-35.88353 z m 344.367667,0 c 19.24063,0 34.82828,16.05334 34.82815,35.88353 0,19.83163 -15.58752,35.92753 -34.82815,35.92753 -19.23919,0 -34.8722,-16.09587 -34.8722,-35.92753 0,-19.83024 15.63301,-35.88353 34.8722,-35.88353 z"
         id="path13" />
    </symbol>
  </defs>
  <g
     inkscape:label="Layer 1"
     inkscape:groupmode="layer"
     id="layer1">
    <g
       id="g3"
       transform="translate(0,2.1635944)">
      <text
         xml:space="preserve"
         style="font-size:12.5927px;line-height:1.4;font-family:Georgia;-inkscape-font-specification:'Georgia, Normal';text-align:center;letter-spacing:0.0785924px;word-spacing:0.053443px;writing-mode:lr-tb;direction:ltr;text-anchor:middle;fill:#000000;stroke-width:1.26422;stroke-linecap:square;paint-order:fill markers stroke"
         x="49.89547"
         y="91.877831"
         id="text1"><tspan
           sodipodi:role="line"
           id="tspan1"
           style="font-style:normal;font-variant:normal;font-weight:900;font-stretch:normal;font-size:12.5927px;font-family:Arial;-inkscape-font-specification:'Arial, Heavy';font-variant-ligatures:normal;font-variant-caps:normal;font-variant-numeric:normal;font-variant-east-asian:normal;fill:#000000;stroke-width:1.26422"
           x="49.934769"
           y="91.877831">NO TURNING</tspan></text>
      <text
         xml:space="preserve"
         style="font-size:14.3176px;line-height:1.4;font-family:Georgia;-inkscape-font-specification:'Georgia, Normal';text-align:center;letter-spacing:0.0893575px;word-spacing:0.0607632px;writing-mode:lr-tb;direction:ltr;text-anchor:middle;fill:#000000;stroke-width:1.43739;stroke-linecap:square;paint-order:fill markers stroke"
         x="49.811241"
         y="75.830589"
         id="text2"><tspan
           sodipodi:role="line"
           id="tspan2"
           style="font-style:normal;font-variant:normal;font-weight:900;font-stretch:normal;font-size:14.3176px;font-family:Arial;-inkscape-font-specification:'Arial, Heavy';font-variant-ligatures:normal;font-variant-caps:normal;font-variant-numeric:normal;font-variant-east-asian:normal;fill:#000000;stroke-width:1.43739"
           x="49.855919"
           y="75.830589">PRIVATE</tspan></text>
      <g
         id="g2"
         transform="matrix(1.5384906,0,0,1.5384906,-26.924524,1.7241604)">
        <g
           id="g1">
          <use
             xlink:href="#sjjb-shopping.svg:car"
             width="502.50159"
             height="420.24799"
             style="fill:#000000;stroke:none"
             id="use1"
             transform="matrix(0.04682645,0,0,0.04682645,38.234816,9.299251)" />
          <ellipse
             style="fill:none;stroke:#ff0000;stroke-width:2.80071;stroke-linecap:square;stroke-dasharray:none;stroke-opacity:1;paint-order:fill markers stroke"
             id="path2"
             cx="49.999996"
             cy="19.138611"
             rx="16.684689"
             ry="16.496161" />
        </g>
        <rect
           style="fill:#ff0000;stroke:#ff0000;stroke-width:1.75503;stroke-linecap:square;stroke-dasharray:none;stroke-opacity:1;paint-order:fill markers stroke"
           id="rect2"
           width="31.645432"
           height="1.5806619"
           x="39.204384"
           y="-24.654148"
           transform="matrix(0.67031761,0.74207433,-0.51399912,0.85779071,0,0)" />
      </g>
    </g>
  </g>
</svg>
